<svg width="20" height="20" viewBox="0 0 20 20" fill="none" xmlns="http://www.w3.org/2000/svg">
<path fill-rule="evenodd" clip-rule="evenodd" d="M1 0H8C8.6 0 9 0.4 9 1V8C9 8.6 8.6 9 8 9H1C0.4 9 0 8.6 0 8V1C0 0.4 0.4 0 1 0ZM1 11H8C8.6 11 9 11.4 9 12V19C9 19.6 8.6 20 8 20H1C0.4 20 0 19.6 0 19V12C0 11.4 0.4 11 1 11ZM19 0H12C11.4 0 11 0.4 11 1V8C11 8.6 11.4 9 12 9H19C19.6 9 20 8.6 20 8V1C20 0.4 19.6 0 19 0ZM12 11H19C19.6 11 20 11.4 20 12V19C20 19.6 19.6 20 19 20H12C11.4 20 11 19.6 11 19V12C11 11.4 11.4 11 12 11Z" fill="white"/>
</svg>
