<svg width="20" height="20" viewBox="0 0 20 20" fill="none" xmlns="http://www.w3.org/2000/svg">
<path fill-rule="evenodd" clip-rule="evenodd" d="M16.9556 0H3.04444C1.36304 0 0 1.36304 0 3.04444V16.9556C0 18.637 1.36304 20 3.04444 20H16.9556C17.763 20 18.5374 19.6792 19.1083 19.1083C19.6792 18.5374 20 17.763 20 16.9556V3.04444C20 2.23701 19.6792 1.46264 19.1083 0.891697C18.5374 0.320753 17.763 0 16.9556 0ZM4 9H2V7H4V9ZM4 11H2V13H4V11ZM18 9H16V7H18V9ZM18 11H16V13H18V11ZM18 2.74V4H16V2H17.26C17.4563 2 17.6445 2.07796 17.7833 2.21674C17.922 2.35552 18 2.54374 18 2.74ZM4 2H2.74C2.54374 2 2.35552 2.07796 2.21674 2.21674C2.07796 2.35552 2 2.54374 2 2.74V4H4V2ZM2 17.26V16H4V18H2.74C2.54374 18 2.35552 17.922 2.21674 17.7833C2.07796 17.6445 2 17.4563 2 17.26ZM17.26 18C17.6687 18 18 17.6687 18 17.26V16H16V18H17.26Z" fill="white"/>
</svg>
